<?xml version="1.0" encoding="UTF-8"?>
<svg version="1.1" xmlns="http://www.w3.org/2000/svg" width="500" height="500">
<path d="M0 0 C1.14317688 0.00021149 2.28635376 0.00042297 3.46417236 0.00064087 C23.64845025 0.03774238 43.30478627 1.36076566 63.25 4.375 C64.57320159 4.56977469 65.89644363 4.76427481 67.21972656 4.95849609 C85.39034627 7.67252552 103.33242747 11.3363906 121.25 15.375 C123.05728443 15.77477232 124.86457552 16.1745145 126.671875 16.57421875 C128.21904018 16.92319514 129.7659409 17.27334737 131.3125 17.625 C131.99094971 17.77590088 132.66939941 17.92680176 133.3684082 18.08227539 C136.52115465 18.81909237 138.50986847 19.54824564 141.25 21.375 C140.75439349 27.14205756 139.08807821 31.29891818 136.375 36.375 C135.66731925 37.7281478 134.96157056 39.0823079 134.2578125 40.4375 C133.91419678 41.09782227 133.57058105 41.75814453 133.21655273 42.43847656 C132.32031461 44.23412213 131.52077412 46.07715193 130.73046875 47.921875 C129.14894029 51.6107171 127.34961437 55.10066546 125.4375 58.625 C124.90648682 59.61149536 124.90648682 59.61149536 124.36474609 60.61791992 C123.32959373 62.53864022 122.29032574 64.45707813 121.25 66.375 C120.50556641 67.75365234 120.50556641 67.75365234 119.74609375 69.16015625 C118.80998211 70.88569538 117.86832386 72.60823406 116.921875 74.328125 C115.62781654 76.68645583 114.34976715 79.051499 113.078125 81.421875 C107.07948113 92.5164957 100.46176288 103.03087773 93.25 113.375 C92.71439453 114.14408691 92.17878906 114.91317383 91.62695312 115.70556641 C85.24335896 124.81983596 78.62533278 133.59237959 71.296875 141.96875 C69.24399202 144.18794038 69.24399202 144.18794038 68.25 146.375 C67.59 146.375 66.93 146.375 66.25 146.375 C65.87391602 147.23786621 65.87391602 147.23786621 65.49023438 148.11816406 C64.08271173 150.67941196 62.46829975 152.41557392 60.40625 154.484375 C59.65472656 155.23847656 58.90320313 155.99257813 58.12890625 156.76953125 C57.34386719 157.54683594 56.55882812 158.32414063 55.75 159.125 C54.96496094 159.91777344 54.17992187 160.71054687 53.37109375 161.52734375 C52.61957031 162.27628906 51.86804688 163.02523437 51.09375 163.796875 C50.40474609 164.48362305 49.71574219 165.17037109 49.00585938 165.87792969 C47.25 167.375 47.25 167.375 45.25 167.375 C45.25 168.035 45.25 168.695 45.25 169.375 C43.29036304 171.13867326 41.33114774 172.76447607 39.25 174.375 C38.30809814 175.10650269 38.30809814 175.10650269 37.34716797 175.8527832 C13.39594848 194.12481711 -15.2546846 206.16661624 -43.75 215.375 C-44.74370605 215.69710449 -45.73741211 216.01920898 -46.76123047 216.35107422 C-78.25499787 226.47736021 -110.39523531 233.42900496 -143 238.875 C-143.99829834 239.04725098 -144.99659668 239.21950195 -146.02514648 239.39697266 C-151.25157545 240.23003293 -155.55849762 240.46492868 -160.75 239.375 C-159.40135873 234.88402459 -157.60935169 231.04888743 -155.25 227 C-154.6415625 225.94039062 -154.033125 224.88078125 -153.40625 223.7890625 C-152.8596875 222.99242187 -152.313125 222.19578125 -151.75 221.375 C-151.09 221.375 -150.43 221.375 -149.75 221.375 C-149.65332031 220.82328125 -149.55664062 220.2715625 -149.45703125 219.703125 C-142.87116156 198.01705685 -117.7469343 174.98011405 -102.625 158.49609375 C-100.71524418 156.40973201 -100.71524418 156.40973201 -99.125 154.09765625 C-98.67125 153.52917969 -98.2175 152.96070313 -97.75 152.375 C-97.09 152.375 -96.43 152.375 -95.75 152.375 C-95.75 151.715 -95.75 151.055 -95.75 150.375 C-95.09 150.375 -94.43 150.375 -93.75 150.375 C-93.75 149.715 -93.75 149.055 -93.75 148.375 C-93.09 148.375 -92.43 148.375 -91.75 148.375 C-91.75 147.715 -91.75 147.055 -91.75 146.375 C-91.09 146.375 -90.43 146.375 -89.75 146.375 C-89.75 145.715 -89.75 145.055 -89.75 144.375 C-89.09 144.375 -88.43 144.375 -87.75 144.375 C-87.75 143.715 -87.75 143.055 -87.75 142.375 C-86.31640625 140.96484375 -86.31640625 140.96484375 -84.3125 139.3125 C-81.07362451 136.5674956 -78.03971595 133.71466924 -75.0625 130.6875 C-72.10254327 127.69692303 -69.21464804 124.7897547 -65.75 122.375 C-65.09 122.375 -64.43 122.375 -63.75 122.375 C-63.75 121.715 -63.75 121.055 -63.75 120.375 C-63.09 120.375 -62.43 120.375 -61.75 120.375 C-61.75 119.715 -61.75 119.055 -61.75 118.375 C-60.01953125 116.78125 -60.01953125 116.78125 -57.5625 114.875 C-56.64597656 114.16085938 -55.72945312 113.44671875 -54.78515625 112.7109375 C-53.78355469 111.94007813 -52.78195313 111.16921875 -51.75 110.375 C-50.73808594 109.58351563 -49.72617188 108.79203125 -48.68359375 107.9765625 C-38.97375904 100.40409388 -29.02525269 93.16317599 -18.75 86.375 C-46.18016753 94.87918568 -72.91556475 114.22999391 -94.95727539 132.10961914 C-96.75 133.375 -96.75 133.375 -98.75 133.375 C-98.75 134.035 -98.75 134.695 -98.75 135.375 C-100.15678023 136.62314331 -101.62879704 137.7980839 -103.125 138.9375 C-107.63700205 142.45533211 -111.91333857 146.14213858 -116.1328125 150.00390625 C-118.20885145 151.88473557 -120.3102085 153.71684147 -122.43359375 155.54296875 C-127.385726 159.86854962 -132.04143794 164.4749801 -136.6875 169.125 C-137.5741333 170.01171387 -138.4607666 170.89842773 -139.37426758 171.81201172 C-144.53340825 177.01645403 -149.40755843 182.24075122 -153.90234375 188.03125 C-155.82751971 190.47333367 -157.8806162 192.72516945 -160 195 C-166.41628249 202.06236649 -172.0568251 209.72855965 -177.75 217.375 C-178.2867334 218.09220215 -178.8234668 218.8094043 -179.37646484 219.54833984 C-191.08775065 235.25251457 -202.01388945 251.61478866 -211.1015625 268.98828125 C-212.75 271.375 -212.75 271.375 -214.78515625 272.32421875 C-219.37601987 272.4428693 -223.20784456 268.081916 -226.375 265.125 C-229.73161144 261.64130082 -232.37374127 258.06225799 -233.75 253.375 C-233.11567894 248.30043154 -228.37046303 243.81614764 -224.75 240.375 C-224.09 240.375 -223.43 240.375 -222.75 240.375 C-222.52441406 239.83101562 -222.29882812 239.28703125 -222.06640625 238.7265625 C-220.33776213 235.63859881 -218.10449856 233.33045026 -215.6875 230.75 C-212.33466353 227.33290247 -212.33466353 227.33290247 -209.75 223.375 C-209.09 223.375 -208.43 223.375 -207.75 223.375 C-207.75 222.715 -207.75 222.055 -207.75 221.375 C-207.09 221.375 -206.43 221.375 -205.75 221.375 C-205.48179443 220.77445801 -205.21358887 220.17391602 -204.93725586 219.55517578 C-203.74129592 217.35901657 -202.56891534 216.17688388 -200.75390625 214.4921875 C-196.24910902 209.33798855 -196.31285757 203.06729186 -195.6875 196.5 C-195.3839191 193.78996092 -195.05914412 191.08257138 -194.734375 188.375 C-194.6550322 187.69639923 -194.57568939 187.01779846 -194.49394226 186.31863403 C-189.18358655 141.69476976 -172.2754671 98.51520009 -144.16796875 63.40625 C-142.75026388 61.6289657 -141.36220328 59.82584419 -140.05078125 57.96875 C-139.40689453 57.17984375 -139.40689453 57.17984375 -138.75 56.375 C-138.09 56.375 -137.43 56.375 -136.75 56.375 C-136.5128125 55.81296875 -136.275625 55.2509375 -136.03125 54.671875 C-134.46052303 51.85605958 -132.53528536 49.89544584 -130.25 47.625 C-129.4559375 46.82578125 -128.661875 46.0265625 -127.84375 45.203125 C-125.75 43.375 -125.75 43.375 -123.75 43.375 C-123.75 42.715 -123.75 42.055 -123.75 41.375 C-118.27380952 36.375 -118.27380952 36.375 -115.75 36.375 C-115.75 35.715 -115.75 35.055 -115.75 34.375 C-113.51034879 32.72170822 -111.27510002 31.19114239 -108.9375 29.6875 C-108.24970459 29.23979248 -107.56190918 28.79208496 -106.85327148 28.33081055 C-105.46154517 27.42618034 -104.06807981 26.5242197 -102.67285156 25.625 C-101.05638606 24.57417428 -99.45933424 23.49356972 -97.8671875 22.40625 C-69.46515804 3.29785098 -33.27898499 -0.05684345 0 0 Z " fill="#1C5E20" transform="translate(295.75,113.625)"/>
<path d="M0 0 C0 3.81307353 -1.03542447 5.74828878 -3 9 C-7.1 12 -7.1 12 -10 12 C-10.08636719 12.7528125 -10.17273438 13.505625 -10.26171875 14.28125 C-11.14760209 17.54355056 -12.1890684 18.43629871 -14.8125 20.5 C-17.36374023 22.58199426 -19.25539777 24.3244242 -21.3125 26.9375 C-22.1478125 27.9584375 -22.1478125 27.9584375 -23 29 C-23.99 29 -24.98 29 -26 29 C-26.12375 29.969375 -26.2475 30.93875 -26.375 31.9375 C-26.58125 32.948125 -26.7875 33.95875 -27 35 C-27.99 35.495 -27.99 35.495 -29 36 C-29.66 35.34 -30.32 34.68 -31 34 C-30.31292969 33.10796875 -29.62585938 32.2159375 -28.91796875 31.296875 C-28.00779952 30.11459332 -27.097644 28.9323011 -26.1875 27.75 C-25.73568359 27.16347656 -25.28386719 26.57695312 -24.81835938 25.97265625 C-24.37685547 25.39902344 -23.93535156 24.82539063 -23.48046875 24.234375 C-23.05040527 23.67814453 -22.6203418 23.12191406 -22.17724609 22.54882812 C-21.18824241 21.24765862 -20.23947952 19.91603977 -19.30078125 18.578125 C-18.65689453 17.79695313 -18.65689453 17.79695313 -18 17 C-17.34 17 -16.68 17 -16 17 C-15.7628125 16.43796875 -15.525625 15.8759375 -15.28125 15.296875 C-13.71052303 12.48105958 -11.78528536 10.52044584 -9.5 8.25 C-8.7059375 7.45078125 -7.911875 6.6515625 -7.09375 5.828125 C-5 4 -5 4 -3 4 C-3 3.34 -3 2.68 -3 2 C-2.01 1.34 -1.02 0.68 0 0 Z " fill="#557D59" transform="translate(175,153)"/>
<path d="M0 0 C2.40493939 0.01509784 4.80988811 0.02877708 7.21484375 0.04101562 C13.01843828 0.07356215 18.82167309 0.12334403 24.625 0.1875 C24.625 0.5175 24.625 0.8475 24.625 1.1875 C15.32281662 1.75931369 6.07181712 2.26135922 -3.25 2.125 C-9.24788648 2.05436402 -14.86716494 2.62456032 -20.76953125 3.671875 C-25.46397252 4.34323605 -30.14144448 4.63016826 -34.875 4.875 C-35.73649658 4.92325928 -36.59799316 4.97151855 -37.4855957 5.02124023 C-41.62003497 5.21351138 -45.33794554 5.28776279 -49.375 4.1875 C-49.375 3.8575 -49.375 3.5275 -49.375 3.1875 C-32.82543592 0.39495783 -16.75988268 -0.18596102 0 0 Z " fill="#618A68" transform="translate(298.375,113.8125)"/>
<path d="M0 0 C0.99 0.33 1.98 0.66 3 1 C1.35 3.97 -0.3 6.94 -2 10 C-2.33 9.34 -2.66 8.68 -3 8 C-7.21832122 9.99388891 -10.9320636 12.23449035 -14.6875 15 C-16.08548828 16.0209375 -16.08548828 16.0209375 -17.51171875 17.0625 C-19.51727906 18.62412937 -21.23677805 20.18567017 -23 22 C-26.79068662 24.88421808 -29.16426043 26.56891054 -34 26 C-33.28972656 25.43796875 -32.57945312 24.8759375 -31.84765625 24.296875 C-28.99786537 21.99827824 -26.22097241 19.62825942 -23.4375 17.25 C-16.32308309 11.26126079 -8.81432726 5.19939283 0 2 C0 1.34 0 0.68 0 0 Z " fill="#4D7B53" transform="translate(279,198)"/>
<path d="M0 0 C0 4.04838568 -1.2630283 5.05249202 -4 8 C-6.84566717 10.26892839 -9.74088206 12.37044103 -13 14 C-13.6496875 15.11375 -13.6496875 15.11375 -14.3125 16.25 C-16.20560746 19.33506401 -18.31100031 21.58679515 -21 24 C-21.66 24 -22.32 24 -23 24 C-23.12375 24.928125 -23.12375 24.928125 -23.25 25.875 C-24 28 -24 28 -25.875 29.25 C-28 30 -28 30 -31 30 C-31 30.66 -31 31.32 -31 32 C-32.485 32.495 -32.485 32.495 -34 33 C-34 32.34 -34 31.68 -34 31 C-33.34 31 -32.68 31 -32 31 C-32 30.34 -32 29.68 -32 29 C-31.34 29 -30.68 29 -30 29 C-30 28.34 -30 27.68 -30 27 C-29.34 27 -28.68 27 -28 27 C-28 26.34 -28 25.68 -28 25 C-26.56640625 23.58984375 -26.56640625 23.58984375 -24.5625 21.9375 C-21.32362451 19.1924956 -18.28971595 16.33966924 -15.3125 13.3125 C-12.35254327 10.32192303 -9.46464804 7.4147547 -6 5 C-5.34 5 -4.68 5 -4 5 C-4 4.34 -4 3.68 -4 3 C-3.34 3 -2.68 3 -2 3 C-2 2.34 -2 1.68 -2 1 C-1.34 0.67 -0.68 0.34 0 0 Z " fill="#567F58" transform="translate(236,231)"/>
<path d="M0 0 C-3.53930013 2.79043058 -7.34790228 5.09284293 -11.1875 7.4375 C-20.06470491 12.91108499 -28.54069324 18.90678647 -37 25 C-37.66 24.01 -38.32 23.02 -39 22 C-33.5 18 -33.5 18 -29 18 C-29 17.01 -29 16.02 -29 15 C-27.35 14.67 -25.7 14.34 -24 14 C-24 13.01 -24 12.02 -24 11 C-23.443125 10.731875 -22.88625 10.46375 -22.3125 10.1875 C-19.92494196 8.99705859 -19.92494196 8.99705859 -17.4375 7.4375 C-15 6 -15 6 -12 5 C-11.67 4.01 -11.34 3.02 -11 2 C-6.98409295 -0.55557722 -4.59051103 -1.48516533 0 0 Z " fill="#4D7A52" transform="translate(245,215)"/>
<path d="M0 0 C2 3 2 3 1.7109375 4.83203125 C1.47632812 5.54746094 1.24171875 6.26289063 1 7 C0.78601563 7.89074219 0.57203125 8.78148437 0.3515625 9.69921875 C-0.81257642 14.48720948 -2.00708412 19.17741924 -3.6875 23.8125 C-5.05545732 27.71687819 -5.26280188 30.88277054 -5 35 C-5.639375 35.12375 -6.27875 35.2475 -6.9375 35.375 C-7.618125 35.58125 -8.29875 35.7875 -9 36 C-9.33 36.66 -9.66 37.32 -10 38 C-9.36587978 31.44226896 -7.89519793 25.33817209 -6.125 19 C-5.86847656 18.05382812 -5.61195312 17.10765625 -5.34765625 16.1328125 C-3.83043876 10.62813397 -2.0925509 5.31282384 0 0 Z " fill="#306535" transform="translate(115,243)"/>
<path d="M0 0 C0.75 1.6875 0.75 1.6875 1 4 C-0.90910048 6.86365071 -3.1007706 9.09831278 -5.5625 11.5 C-9.7681872 15.81352534 -11.08478983 19.11650604 -12 25 C-12.66 25.66 -13.32 26.32 -14 27 C-17.13001605 21.82343499 -17.13001605 21.82343499 -16.625 18.625 C-14.20699759 14.71899611 -11.33323797 11.16814836 -8 8 C-7.34 8 -6.68 8 -6 8 C-5.7525 7.4225 -5.505 6.845 -5.25 6.25 C-3.83316683 3.6997003 -2.12372463 1.98214299 0 0 Z " fill="#49774E" transform="translate(79,346)"/>
<path d="M0 0 C0.495 1.485 0.495 1.485 1 3 C0.20335937 3.18175781 -0.59328125 3.36351563 -1.4140625 3.55078125 C-7.00759463 4.87771406 -11.9096504 6.2685929 -17 9 C-21.05367486 10.28531154 -23.19079314 9.85018619 -27 8 C-27 8.66 -27 9.32 -27 10 C-28.65 10 -30.3 10 -32 10 C-29.14055028 7.63823931 -26.72392294 6.41128042 -23.15625 5.4296875 C-22.23972656 5.17316406 -21.32320312 4.91664062 -20.37890625 4.65234375 C-19.42886719 4.39582031 -18.47882813 4.13929687 -17.5 3.875 C-16.54996094 3.61074219 -15.59992188 3.34648438 -14.62109375 3.07421875 C-12.08362413 2.37115052 -9.54457567 1.67687428 -7 1 C-6.30197266 0.80809082 -5.60394531 0.61618164 -4.88476562 0.41845703 C-3 0 -3 0 0 0 Z " fill="#4B7C50" transform="translate(247,118)"/>
<path d="M0 0 C0.99 0.33 1.98 0.66 3 1 C2.01 2.485 2.01 2.485 1 4 C0.34 4 -0.32 4 -1 4 C-1.400979 4.88993652 -1.400979 4.88993652 -1.81005859 5.79785156 C-3.01584993 8.02933245 -4.2358095 9.4664799 -6.0390625 11.234375 C-6.90917969 12.09482422 -6.90917969 12.09482422 -7.796875 12.97265625 C-8.40015625 13.55917969 -9.0034375 14.14570313 -9.625 14.75 C-10.23601562 15.35199219 -10.84703125 15.95398438 -11.4765625 16.57421875 C-12.97988624 18.05405305 -14.48934856 19.52764676 -16 21 C-16.66 20.01 -17.32 19.02 -18 18 C-17.34 18 -16.68 18 -16 18 C-15.72414063 17.42765625 -15.44828125 16.8553125 -15.1640625 16.265625 C-14.00532152 14.01035733 -12.73124294 11.89143622 -11.375 9.75 C-10.92898438 9.04359375 -10.48296875 8.3371875 -10.0234375 7.609375 C-9.68570312 7.07828125 -9.34796875 6.5471875 -9 6 C-8.01 6.33 -7.02 6.66 -6 7 C-6 6.34 -6 5.68 -6 5 C-4.37064759 3.62131719 -2.70250393 2.28725907 -1 1 C-0.67 0.67 -0.34 0.34 0 0 Z " fill="#26622C" transform="translate(363,256)"/>
<path d="M0 0 C1 2 1 2 0.0625 5.125 C-0.288125 6.07375 -0.63875 7.0225 -1 8 C-1.66 8 -2.32 8 -3 8 C-3 8.66 -3 9.32 -3 10 C-3.66 10 -4.32 10 -5 10 C-5.1546875 11.6396875 -5.1546875 11.6396875 -5.3125 13.3125 C-6 17 -6 17 -7.4375 18.9375 C-9 20 -9 20 -11 20 C-11.66 21.32 -12.32 22.64 -13 24 C-13.99 24 -14.98 24 -16 24 C-14.44833267 19.39730141 -11.96462859 15.87447866 -9.125 12 C-8.69058594 11.39671875 -8.25617188 10.7934375 -7.80859375 10.171875 C-5.29757915 6.70320619 -2.7048832 3.32134495 0 0 Z " fill="#4D7A4F" transform="translate(162,310)"/>
<path d="M0 0 C3.79164991 -0.02943124 7.58326979 -0.0469419 11.375 -0.0625 C12.43589844 -0.07087891 13.49679687 -0.07925781 14.58984375 -0.08789062 C21.12672204 -0.1079424 27.51174824 0.1941922 34 1 C30.18066291 3.54622473 27.10690466 3.26074474 22.6875 3.1875 C21.49374756 3.17783203 21.49374756 3.17783203 20.27587891 3.16796875 C13.15888809 3.07696227 6.08933671 2.63826826 -1 2 C-0.67 1.34 -0.34 0.68 0 0 Z " fill="#2F6335" transform="translate(309,115)"/>
<path d="M0 0 C0.99 0 1.98 0 3 0 C1.42295735 4.68632561 -1.13799966 8.34249667 -4 12.3125 C-4.67675781 13.28026367 -4.67675781 13.28026367 -5.3671875 14.26757812 C-6.52420937 15.88501255 -7.75666577 17.44793244 -9 19 C-9.66 19 -10.32 19 -11 19 C-11 18.34 -11 17.68 -11 17 C-10.34 17 -9.68 17 -9 17 C-8.896875 16.34 -8.79375 15.68 -8.6875 15 C-6.36978417 4.88633094 -6.36978417 4.88633094 -2.875 2.625 C-2.25625 2.41875 -1.6375 2.2125 -1 2 C-0.67 1.34 -0.34 0.68 0 0 Z " fill="#5C855D" transform="translate(392,216)"/>
<path d="M0 0 C0.33 0 0.66 0 1 0 C1 1.65 1 3.3 1 5 C0.34 5 -0.32 5 -1 5 C-1.0825 5.66 -1.165 6.32 -1.25 7 C-2.64702259 12.58809038 -4.23241933 16.91225805 -9.25 20 C-10.1575 20.33 -11.065 20.66 -12 21 C-10.32163257 16.13752978 -7.66807039 12.00929388 -4.9375 7.6875 C-4.47794922 6.94693359 -4.01839844 6.20636719 -3.54492188 5.44335938 C-2.39382383 3.60937791 -1.20060244 1.8019624 0 0 Z " fill="#577F58" transform="translate(143,188)"/>
<path d="M0 0 C0.91191297 2.48957835 1.15965671 3.60705494 0.14453125 6.10546875 C-0.51482422 7.13607422 -0.51482422 7.13607422 -1.1875 8.1875 C-1.82751953 9.22970703 -1.82751953 9.22970703 -2.48046875 10.29296875 C-4.25705243 12.28877098 -5.39611102 12.62642278 -8 13 C-8 13.66 -8 14.32 -8 15 C-8.66 15 -9.32 15 -10 15 C-10.33 15.99 -10.66 16.98 -11 18 C-11.99 17.34 -12.98 16.68 -14 16 C-11.85478186 13.52030041 -9.70872226 11.04133053 -7.5625 8.5625 C-6.95083984 7.85544922 -6.33917969 7.14839844 -5.70898438 6.41992188 C-5.12568359 5.74638672 -4.54238281 5.07285156 -3.94140625 4.37890625 C-3.13231812 3.44413452 -3.13231812 3.44413452 -2.30688477 2.49047852 C-1.5608583 1.63964878 -0.80014584 0.80014584 0 0 Z " fill="#417143" transform="translate(187,279)"/>
<path d="M0 0 C0.99 0.33 1.98 0.66 3 1 C-3.66666667 7.66666667 -10.33333333 14.33333333 -17 21 C-17.33 20.01 -17.66 19.02 -18 18 C-17.01 17.67 -16.02 17.34 -15 17 C-15 16.34 -15 15.68 -15 15 C-14.34 15 -13.68 15 -13 15 C-13 14.34 -13 13.68 -13 13 C-12.34 13 -11.68 13 -11 13 C-11 12.34 -11 11.68 -11 11 C-10.34 11 -9.68 11 -9 11 C-8.67 10.01 -8.34 9.02 -8 8 C-7.34 7.34 -6.68 6.68 -6 6 C-5.67 5.34 -5.34 4.68 -5 4 C-4.34 4 -3.68 4 -3 4 C-2.67 3.01 -2.34 2.02 -2 1 C-1.34 0.67 -0.68 0.34 0 0 Z " fill="#5A8160" transform="translate(177,261)"/>
<path d="M0 0 C0.33 0.99 0.66 1.98 1 3 C-1.68841859 5.25245881 -3.64641875 6.88213958 -7 8 C-8.00409551 8.99588765 -9.00373363 9.99628026 -10 11 C-11.97265625 12.203125 -11.97265625 12.203125 -14.0625 13.25 C-15.10083984 13.78367188 -15.10083984 13.78367188 -16.16015625 14.328125 C-16.76730469 14.54984375 -17.37445313 14.7715625 -18 15 C-18.66 14.67 -19.32 14.34 -20 14 C-19.01 13.67 -18.02 13.34 -17 13 C-17 12.34 -17 11.68 -17 11 C-14.57242822 9.22509654 -12.14828372 7.56520218 -9.625 5.9375 C-8.57699219 5.24817383 -8.57699219 5.24817383 -7.5078125 4.54492188 C-2.39814635 1.19907318 -2.39814635 1.19907318 0 0 Z " fill="#587E5C" transform="translate(197,137)"/>
<path d="M0 0 C-2.91030509 1.98864885 -5.8292633 3.96421086 -8.75 5.9375 C-9.575 6.50146484 -10.4 7.06542969 -11.25 7.64648438 C-12.04921875 8.18466797 -12.8484375 8.72285156 -13.671875 9.27734375 C-14.77160645 10.02359009 -14.77160645 10.02359009 -15.89355469 10.78491211 C-17.95323593 11.97302448 -19.67654755 12.55689098 -22 13 C-22.33 12.34 -22.66 11.68 -23 11 C-19.55930376 8.70620251 -18.27709699 8 -14 8 C-13.835 7.2575 -13.67 6.515 -13.5 5.75 C-11.58488578 2.23895726 -9.56519151 1.34235775 -6.0703125 -0.3984375 C-3.63250863 -1.10678051 -2.39748493 -0.68901877 0 0 Z " fill="#507853" transform="translate(331,291)"/>
<path d="M0 0 C1.32 0.33 2.64 0.66 4 1 C2.71283353 2.00578589 1.42011342 3.00446798 0.125 4 C-0.59429687 4.556875 -1.31359375 5.11375 -2.0546875 5.6875 C-4 7 -4 7 -6 7 C-6 7.66 -6 8.32 -6 9 C-7.96875 10.7265625 -7.96875 10.7265625 -10.5 12.625 C-11.75296875 13.57246094 -11.75296875 13.57246094 -13.03125 14.5390625 C-13.6809375 15.02117187 -14.330625 15.50328125 -15 16 C-15.33 14.68 -15.66 13.36 -16 12 C-15.071875 11.87625 -15.071875 11.87625 -14.125 11.75 C-11.81653196 11.21189267 -11.81653196 11.21189267 -11 9 C-10.67 8.34 -10.34 7.68 -10 7 C-8.66666667 6.66666667 -7.33333333 6.33333333 -6 6 C-4.71563266 4.0162233 -4.71563266 4.0162233 -4 2 C-2.68 2 -1.36 2 0 2 C0 1.34 0 0.68 0 0 Z " fill="#537C56" transform="translate(203,240)"/>
<path d="M0 0 C7.4071181 0.62272232 14.68194135 1.70487966 22 3 C20 5 20 5 17.8359375 5.1953125 C16.61777344 5.16050781 16.61777344 5.16050781 15.375 5.125 C14.55773437 5.10695313 13.74046875 5.08890625 12.8984375 5.0703125 C12.27195312 5.04710938 11.64546875 5.02390625 11 5 C10.67 5.66 10.34 6.32 10 7 C10 6.01 10 5.02 10 4 C7.03 3.67 4.06 3.34 1 3 C0.67 2.01 0.34 1.02 0 0 Z " fill="#467549" transform="translate(367,120)"/>
<path d="M0 0 C2.31 0.33 4.62 0.66 7 1 C2.6480002 3.28857821 -1.88394769 4.65790708 -6.5625 6.125 C-7.42552734 6.40214844 -8.28855469 6.67929687 -9.17773438 6.96484375 C-10.00724609 7.22652344 -10.83675781 7.48820312 -11.69140625 7.7578125 C-12.44623291 7.9964502 -13.20105957 8.23508789 -13.97875977 8.48095703 C-16 9 -16 9 -19 9 C-18.67 7.68 -18.34 6.36 -18 5 C-16.39125 5.061875 -16.39125 5.061875 -14.75 5.125 C-11.13106549 5.00436885 -10.04264934 4.57039966 -7 3 C-3.75 2.875 -3.75 2.875 -1 3 C-0.67 2.01 -0.34 1.02 0 0 Z " fill="#55835B" transform="translate(242,328)"/>
<path d="M0 0 C0 0.99 0 1.98 0 3 C-2.41267325 3.867242 -4.82904469 4.71896936 -7.25 5.5625 C-7.93191406 5.80935547 -8.61382812 6.05621094 -9.31640625 6.31054688 C-15.58342161 8.47053761 -15.58342161 8.47053761 -19 7 C-19 6.67 -19 6.34 -19 6 C-17.02 6 -15.04 6 -13 6 C-13 5.34 -13 4.68 -13 4 C-4.738041 -0.59225513 -4.738041 -0.59225513 0 0 Z " fill="#4F7953" transform="translate(267,321)"/>
<path d="M0 0 C-2.6226232 1.33819498 -5.24786599 2.6707151 -7.875 4 C-8.99455078 4.57234375 -8.99455078 4.57234375 -10.13671875 5.15625 C-10.85214844 5.5171875 -11.56757813 5.878125 -12.3046875 6.25 C-13.2944458 6.75273437 -13.2944458 6.75273437 -14.30419922 7.265625 C-16 8 -16 8 -18 8 C-17.67 6.68 -17.34 5.36 -17 4 C-15.68 4 -14.36 4 -13 4 C-13 3.34 -13 2.68 -13 2 C-11.5882217 1.46605821 -10.17029756 0.94834896 -8.75 0.4375 C-7.96109375 0.14746094 -7.1721875 -0.14257812 -6.359375 -0.44140625 C-3.77258773 -1.05384098 -2.50505366 -0.72332269 0 0 Z " fill="#4C7752" transform="translate(305,307)"/>
<path d="M0 0 C0 0.66 0 1.32 0 2 C0.99 2.33 1.98 2.66 3 3 C0.41747107 3.50449402 -2.16588703 4.00374301 -4.75 4.5 C-5.84441406 4.71462891 -5.84441406 4.71462891 -6.9609375 4.93359375 C-10.39343532 5.58888879 -13.49169491 6 -17 6 C-16.67 5.01 -16.34 4.02 -16 3 C-13.41796875 2.05078125 -13.41796875 2.05078125 -10.1875 1.3125 C-9.12917969 1.06113281 -8.07085937 0.80976563 -6.98046875 0.55078125 C-4 0 -4 0 0 0 Z " fill="#537D57" transform="translate(180,344)"/>
<path d="M0 0 C1.19799449 4.14659373 0.8896192 7.99369047 0.5625 12.25 C0.48418945 13.36761719 0.48418945 13.36761719 0.40429688 14.5078125 C0.2751783 16.33894861 0.13834886 18.16953813 0 20 C-0.639375 20.12375 -1.27875 20.2475 -1.9375 20.375 C-2.618125 20.58125 -3.29875 20.7875 -4 21 C-4.33 21.66 -4.66 22.32 -5 23 C-4.354523 15.09290669 -2.13002861 7.60866033 0 0 Z " fill="#65896A" transform="translate(110,258)"/>
<path d="M0 0 C0 0.99 0 1.98 0 3 C-2.125 4.9375 -2.125 4.9375 -5 7 C-6.485 8.11375 -6.485 8.11375 -8 9.25 C-11.07897365 11.04606796 -12.52140284 11.40924672 -16 11 C-15.319375 10.46375 -14.63875 9.9275 -13.9375 9.375 C-12.35001403 8.0915007 -10.77109989 6.79511396 -9.25 5.43359375 C-8.651875 4.89863281 -8.05375 4.36367187 -7.4375 3.8125 C-6.87933594 3.30332031 -6.32117188 2.79414063 -5.74609375 2.26953125 C-3.83407314 0.87935967 -2.30855689 0.41927838 0 0 Z " fill="#4B764F" transform="translate(261,213)"/>
<path d="M0 0 C0 0.33 0 0.66 0 1 C-2.22771342 1.50643553 -4.45724076 2.0048962 -6.6875 2.5 C-8.54955078 2.91765625 -8.54955078 2.91765625 -10.44921875 3.34375 C-13.42398218 3.89354126 -15.99368602 4.13795705 -19 4 C-19.33 3.01 -19.66 2.02 -20 1 C-13.02328842 -0.40697017 -7.02783812 -1.35150733 0 0 Z " fill="#4B7A51" transform="translate(202,342)"/>
<path d="M0 0 C0 0.99 0 1.98 0 3 C-5.66507011 6.08900201 -10.50857435 8.57664615 -17 9 C-15.40434605 5.8086921 -12.15338879 4.88215291 -9.0625 3.375 C-8.41603516 3.05015625 -7.76957031 2.7253125 -7.10351562 2.390625 C-2.26702009 0 -2.26702009 0 0 0 Z " fill="#567F58" transform="translate(215,128)"/>
<path d="M0 0 C-0.28211877 1.6266848 -0.57602375 3.25132896 -0.875 4.875 C-1.03742188 5.77992188 -1.19984375 6.68484375 -1.3671875 7.6171875 C-2 10 -2 10 -4 12 C-7.16875 6.759375 -7.16875 6.759375 -6.375 3.1875 C-4.63992312 0.42715042 -3.22741321 0 0 0 Z " fill="#26622A" transform="translate(69,361)"/>
<path d="M0 0 C0 4.04838568 -1.2630283 5.05249202 -4 8 C-7.71433742 11.07180986 -11.39483269 13.46494423 -16 15 C-12.93922229 11.15216516 -10.05957421 7.85267377 -6 5 C-5.34 5 -4.68 5 -4 5 C-4 4.34 -4 3.68 -4 3 C-3.34 3 -2.68 3 -2 3 C-2 2.34 -2 1.68 -2 1 C-1.34 0.67 -0.68 0.34 0 0 Z " fill="#538659" transform="translate(236,231)"/>
<path d="M0 0 C0 3.81307353 -1.03542447 5.74828878 -3 9 C-5.4375 10.9375 -5.4375 10.9375 -8 12 C-10.16015625 11.56640625 -10.16015625 11.56640625 -12 11 C-10.88121617 9.82737096 -9.75476949 8.66204862 -8.625 7.5 C-7.68527344 6.52546875 -7.68527344 6.52546875 -6.7265625 5.53125 C-5 4 -5 4 -3 4 C-3 3.34 -3 2.68 -3 2 C-2.01 1.34 -1.02 0.68 0 0 Z " fill="#4B744E" transform="translate(175,153)"/>
<path d="M0 0 C1.32 0.33 2.64 0.66 4 1 C2.625 2.5 2.625 2.5 1 4 C0.34 4 -0.32 4 -1 4 C-1 4.66 -1 5.32 -1 6 C-2.96875 7.7265625 -2.96875 7.7265625 -5.5 9.625 C-6.75296875 10.57246094 -6.75296875 10.57246094 -8.03125 11.5390625 C-8.6809375 12.02117187 -9.330625 12.50328125 -10 13 C-10.66 12.67 -11.32 12.34 -12 12 C-12 11.34 -12 10.68 -12 10 C-11.01 9.67 -10.02 9.34 -9 9 C-8.34 8.01 -7.68 7.02 -7 6 C-6.34 6 -5.68 6 -5 6 C-5 5.34 -5 4.68 -5 4 C-4.34 4 -3.68 4 -3 4 C-1.36323743 2.0399719 -1.36323743 2.0399719 0 0 Z " fill="#4A7751" transform="translate(342,277)"/>
<path d="M0 0 C0.66 0.33 1.32 0.66 2 1 C2 2.32 2 3.64 2 5 C1.01 5.66 0.02 6.32 -1 7 C-2.19232613 9.05003955 -2.19232613 9.05003955 -3 11 C-3.66 11 -4.32 11 -5 11 C-5.33 11.99 -5.66 12.98 -6 14 C-6.99 14 -7.98 14 -9 14 C-7.65070536 10.16336928 -5.92248975 7.34827431 -3.375 4.1875 C-2.42753906 3.00220703 -2.42753906 3.00220703 -1.4609375 1.79296875 C-0.97882813 1.20128906 -0.49671875 0.60960937 0 0 Z " fill="#59805B" transform="translate(172,296)"/>
<path d="M0 0 C0.66 0 1.32 0 2 0 C1.1875 2.9375 1.1875 2.9375 0 6 C-0.99 6.33 -1.98 6.66 -3 7 C-3 7.66 -3 8.32 -3 9 C-3.61875 9.2475 -4.2375 9.495 -4.875 9.75 C-7.35068687 11.20628639 -7.95125002 12.37812506 -9 15 C-9.99 15 -10.98 15 -12 15 C-10.60366893 11.81440048 -8.95442507 9.76056155 -6.4375 7.375 C-3.85984611 4.95478041 -3.85984611 4.95478041 -2 2 C-1.34 2 -0.68 2 0 2 C0 1.34 0 0.68 0 0 Z " fill="#698F6B" transform="translate(200,264)"/>
<path d="M0 0 C2.04174058 0.31201674 4.08338913 0.62463569 6.125 0.9375 C7.83042969 1.19853516 7.83042969 1.19853516 9.5703125 1.46484375 C12.71732669 1.95589266 15.85930783 2.47018719 19 3 C19 3.33 19 3.66 19 4 C13.12156971 4.88448604 7.83501677 5.3307933 2 4 C0.77734375 1.94921875 0.77734375 1.94921875 0 0 Z " fill="#56835B" transform="translate(390,124)"/>
<path d="M0 0 C1.31534494 3.65857532 0.65468309 6.08026481 -0.4375 9.75 C-0.72496094 10.73484375 -1.01242188 11.7196875 -1.30859375 12.734375 C-1.65083984 13.85585937 -1.65083984 13.85585937 -2 15 C-2.66 15 -3.32 15 -4 15 C-4 16.65 -4 18.3 -4 20 C-4.99 19.67 -5.98 19.34 -7 19 C-4.94235079 12.54646385 -2.57616518 6.2638737 0 0 Z " fill="#638C66" transform="translate(123,223)"/>
<path d="M0 0 C0.99 0 1.98 0 3 0 C2.58682778 4.82034262 0.61980085 6.90992611 -3 10 C-3.66 10 -4.32 10 -5 10 C-5 8.35 -5 6.7 -5 5 C-4.34 5 -3.68 5 -3 5 C-2.5359375 4.0409375 -2.5359375 4.0409375 -2.0625 3.0625 C-1 1 -1 1 0 0 Z " fill="#2B6230" transform="translate(162,165)"/>
<path d="M0 0 C1.13115234 0.07831055 1.13115234 0.07831055 2.28515625 0.15820312 C4.1487937 0.28795004 6.01194996 0.42457488 7.875 0.5625 C6.885 0.8925 5.895 1.2225 4.875 1.5625 C4.875 2.2225 4.875 2.8825 4.875 3.5625 C2.74936897 3.44873383 0.6244739 3.32114369 -1.5 3.1875 C-2.68335938 3.11789063 -3.86671875 3.04828125 -5.0859375 2.9765625 C-8.125 2.5625 -8.125 2.5625 -10.125 0.5625 C-6.91158631 -1.04420684 -3.49541032 -0.26260855 0 0 Z " fill="#49784C" transform="translate(351.125,117.4375)"/>
<path d="M0 0 C0.66 0 1.32 0 2 0 C2.1875 2.3125 2.1875 2.3125 2 5 C1.0206121 6.02019573 0.02104551 7.02149805 -1 8 C-1 9.32 -1 10.64 -1 12 C-2.98 12.66 -4.96 13.32 -7 14 C-5.23570801 9.02790438 -2.6060834 4.56561939 0 0 Z " fill="#58835D" transform="translate(144,335)"/>
<path d="M0 0 C0 4.0744433 -2.09169249 6.11745033 -4.5 9.1875 C-4.92925781 9.74630859 -5.35851562 10.30511719 -5.80078125 10.88085938 C-6.86078055 12.25885847 -7.92956188 13.63009407 -9 15 C-10 12 -10 12 -8.6875 9.3125 C-8.130625 8.549375 -7.57375 7.78625 -7 7 C-6.34 7 -5.68 7 -5 7 C-5 5.68 -5 4.36 -5 3 C-4.34 3 -3.68 3 -3 3 C-3 2.34 -3 1.68 -3 1 C-2.01 0.67 -1.02 0.34 0 0 Z " fill="#5F8963" transform="translate(113,335)"/>
<path d="M0 0 C0.99 0.33 1.98 0.66 3 1 C2.01 2.485 2.01 2.485 1 4 C0.34 4 -0.32 4 -1 4 C-1.25523437 4.59296875 -1.51046875 5.1859375 -1.7734375 5.796875 C-3.11816498 8.21224538 -4.49214367 9.51211706 -6.625 11.25 C-7.25664062 11.77078125 -7.88828125 12.2915625 -8.5390625 12.828125 C-9.02117187 13.21484375 -9.50328125 13.6015625 -10 14 C-9.67 12.35 -9.34 10.7 -9 9 C-8.01 9 -7.02 9 -6 9 C-6 7.68 -6 6.36 -6 5 C-3.5625 2.8125 -3.5625 2.8125 -1 1 C-0.67 0.67 -0.34 0.34 0 0 Z " fill="#4C7955" transform="translate(363,256)"/>
<path d="M0 0 C0.66 0.33 1.32 0.66 2 1 C2.625 3.0625 2.625 3.0625 3 5 C2.01 5.495 2.01 5.495 1 6 C-0.13350534 8.01669827 -0.13350534 8.01669827 -1 10 C-1.66 10 -2.32 10 -3 10 C-3 10.66 -3 11.32 -3 12 C-3.99 12.33 -4.98 12.66 -6 13 C-4.58707905 8.1725201 -2.57025846 4.2837641 0 0 Z " fill="#4C7A50" transform="translate(130,210)"/>
<path d="M0 0 C0.66 0.33 1.32 0.66 2 1 C0.51637716 7.26418531 -3.24162156 11.91513505 -7 17 C-7.66 16.67 -8.32 16.34 -9 16 C-8.67 15.01 -8.34 14.02 -8 13 C-7.34 13 -6.68 13 -6 13 C-6 12.01 -6 11.02 -6 10 C-5.34 10 -4.68 10 -4 10 C-4 8.68 -4 7.36 -4 6 C-3.34 6 -2.68 6 -2 6 C-1.34 4.02 -0.68 2.04 0 0 Z " fill="#4E7D51" transform="translate(403,199)"/>
<path d="M0 0 C0.66 0.33 1.32 0.66 2 1 C1.31238981 4.65564909 -0.25449545 7.51867272 -2.0625 10.75 C-2.61035156 11.73484375 -3.15820312 12.7196875 -3.72265625 13.734375 C-4.14417969 14.48203125 -4.56570313 15.2296875 -5 16 C-6.046875 14.1328125 -6.046875 14.1328125 -7 12 C-6.05773345 9.33024478 -5.01384202 8.01384202 -3 6 C-1.96838392 4.01612292 -0.96476382 2.01723344 0 0 Z " fill="#527A55" transform="translate(414,179)"/>
<path d="M0 0 C0.66 0.33 1.32 0.66 2 1 C2.3690205 11.55808656 2.3690205 11.55808656 0 16 C-0.66 16 -1.32 16 -2 16 C-1.85764543 14.27054347 -1.71095618 12.54144346 -1.5625 10.8125 C-1.48128906 9.84957031 -1.40007812 8.88664062 -1.31640625 7.89453125 C-1.02333849 5.21350398 -0.57296246 2.6337014 0 0 Z " fill="#4F7A56" transform="translate(104,283)"/>
<path d="M0 0 C0.99 0 1.98 0 3 0 C2.34 1.32 1.68 2.64 1 4 C-0.03125 3.938125 -1.0625 3.87625 -2.125 3.8125 C-6.25778071 4.01247326 -8.43619502 5.01089955 -12 7 C-12.66 7 -13.32 7 -14 7 C-13.67 5.68 -13.34 4.36 -13 3 C-10.00519083 2.1276588 -7.36424089 1.89170234 -4.25 1.9375 C-3.45078125 1.94652344 -2.6515625 1.95554688 -1.828125 1.96484375 C-1.22484375 1.97644531 -0.6215625 1.98804688 0 2 C0 1.34 0 0.68 0 0 Z " fill="#618B63" transform="translate(285,194)"/>
<path d="M0 0 C0.99 0.33 1.98 0.66 3 1 C-0.63 4.96 -4.26 8.92 -8 13 C-8.66 12.01 -9.32 11.02 -10 10 C-6.66666667 6.66666667 -3.33333333 3.33333333 0 0 Z " fill="#54815B" transform="translate(151,287)"/>
<path d="M0 0 C0.99 0.33 1.98 0.66 3 1 C0.36 5.62 -2.28 10.24 -5 15 C-5.33 15 -5.66 15 -6 15 C-6 12.69 -6 10.38 -6 8 C-5.01 8 -4.02 8 -3 8 C-3.33 7.01 -3.66 6.02 -4 5 C-3.34 4.360625 -2.68 3.72125 -2 3.0625 C0.11602431 1.35917681 0.11602431 1.35917681 0 0 Z " fill="#4F7652" transform="translate(94,360)"/>
<path d="M0 0 C0.66 0 1.32 0 2 0 C-0.02564422 4.20710722 -2.4112324 8.1168486 -5 12 C-5.99 11.67 -6.98 11.34 -8 11 C-6.4722133 7.56247993 -4.49818944 4.81046312 -2 2 C-1.34 2 -0.68 2 0 2 C0 1.34 0 0.68 0 0 Z " fill="#618666" transform="translate(88,335)"/>
<path d="M0 0 C1.32 0.66 2.64 1.32 4 2 C1.69 4.97 -0.62 7.94 -3 11 C-3.66 10.01 -4.32 9.02 -5 8 C-3.35 5.36 -1.7 2.72 0 0 Z " fill="#47774B" transform="translate(123,317)"/>
<path d="M0 0 C0.99 0 1.98 0 3 0 C1.52041491 3.9115468 -0.53957471 5.2274524 -4.125 7.25 C-5.49011719 8.03117188 -5.49011719 8.03117188 -6.8828125 8.828125 C-7.58148438 9.21484375 -8.28015625 9.6015625 -9 10 C-9.33 9.01 -9.66 8.02 -10 7 C-4.5 3 -4.5 3 0 3 C0 2.01 0 1.02 0 0 Z " fill="#58805C" transform="translate(216,230)"/>
<path d="M0 0 C4.75481646 0.57634139 7.97048212 2.55068521 12 5 C11.67 5.66 11.34 6.32 11 7 C5.95904225 6.55520961 3.58884285 4.33845847 0 1 C0 0.67 0 0.34 0 0 Z " fill="#5B835F" transform="translate(71,379)"/>
<path d="M0 0 C0.33 0 0.66 0 1 0 C2.45295405 9.01531729 2.45295405 9.01531729 0.5625 13.125 C0.046875 13.74375 -0.46875 14.3625 -1 15 C-2.32 14.34 -3.64 13.68 -5 13 C-4.360625 12.34 -3.72125 11.68 -3.0625 11 C-0.41087498 7.14309088 -0.31332879 4.62159967 0 0 Z " fill="#608763" transform="translate(99,316)"/>
<path d="M0 0 C1 2 1 2 0.0625 5.125 C-0.288125 6.07375 -0.63875 7.0225 -1 8 C-1.66 8 -2.32 8 -3 8 C-3 8.66 -3 9.32 -3 10 C-4.65 10.66 -6.3 11.32 -8 12 C-6.59023295 8.96147295 -4.91129772 6.4060405 -2.875 3.75 C-2.06675781 2.69039063 -2.06675781 2.69039063 -1.2421875 1.609375 C-0.83226562 1.07828125 -0.42234375 0.5471875 0 0 Z " fill="#6A8E6B" transform="translate(162,310)"/>
<path d="M0 0 C0.33 0 0.66 0 1 0 C2.08242242 5.41211212 3.09891374 11.25271564 1 16.5 C0.67 16.995 0.34 17.49 0 18 C-1.60670684 14.78658631 -0.82510855 11.37041032 -0.5625 7.875 C-0.51029297 7.12089844 -0.45808594 6.36679687 -0.40429688 5.58984375 C-0.27454996 3.7262063 -0.13792512 1.86305004 0 0 Z " fill="#5D8A65" transform="translate(101,299)"/>
<path d="M0 0 C-2.45925493 2.45925493 -4.79646927 3.34371127 -8 4.6875 C-9.0725 5.14511719 -10.145 5.60273438 -11.25 6.07421875 C-12.1575 6.37972656 -13.065 6.68523437 -14 7 C-14.66 6.67 -15.32 6.34 -16 6 C-16 5.34 -16 4.68 -16 4 C-14.02 4 -12.04 4 -10 4 C-10 3.34 -10 2.68 -10 2 C-6.5980513 -0.09350689 -3.94727588 -0.17942163 0 0 Z " fill="#547D59" transform="translate(286,315)"/>
<path d="M0 0 C5.445 1.485 5.445 1.485 11 3 C11 3.33 11 3.66 11 4 C9.37585622 4.19477739 7.75063577 4.38059458 6.125 4.5625 C5.22007812 4.66691406 4.31515625 4.77132813 3.3828125 4.87890625 C1 5 1 5 -1 4 C-0.67 2.68 -0.34 1.36 0 0 Z " fill="#618A67" transform="translate(136,349)"/>
<path d="M0 0 C0.99 0.33 1.98 0.66 3 1 C0.36 4.3 -2.28 7.6 -5 11 C-5.66 9.68 -6.32 8.36 -7 7 C-5.68 6.67 -4.36 6.34 -3 6 C-3.33 5.01 -3.66 4.02 -4 3 C-2.68 2.67 -1.36 2.34 0 2 C0 1.34 0 0.68 0 0 Z " fill="#597F5D" transform="translate(135,305)"/>
<path d="M0 0 C5.94 0.33 11.88 0.66 18 1 C14.26269935 3.49153377 11.32345184 3.41025455 7 3 C4.5879333 2.47406064 2.34792812 1.78264271 0 1 C0 0.67 0 0.34 0 0 Z " fill="#5E8660" transform="translate(325,115)"/>
<path d="M0 0 C0.99 0 1.98 0 3 0 C2.3125 2.4375 2.3125 2.4375 1 5 C-1.625 5.8125 -1.625 5.8125 -4 6 C-4.33 6.99 -4.66 7.98 -5 9 C-5.33 7.68 -5.66 6.36 -6 5 C-5.195625 4.54625 -4.39125 4.0925 -3.5625 3.625 C-0.91143428 2.25274335 -0.91143428 2.25274335 0 0 Z " fill="#407143" transform="translate(392,216)"/>
<path d="M0 0 C0.99 0.33 1.98 0.66 3 1 C0.42215154 3.64752004 -1.91648098 5.94432065 -5 8 C-5.33 7.34 -5.66 6.68 -6 6 C-5.67 5.34 -5.34 4.68 -5 4 C-4.34 4 -3.68 4 -3 4 C-2.67 3.01 -2.34 2.02 -2 1 C-1.34 0.67 -0.68 0.34 0 0 Z " fill="#487450" transform="translate(177,261)"/>
<path d="M0 0 C0.33 0 0.66 0 1 0 C0.50269348 4.97306516 -0.55302334 8.63799813 -3 13 C-3.33 13 -3.66 13 -4 13 C-4 10.36 -4 7.72 -4 5 C-2.68 4.67 -1.36 4.34 0 4 C0 2.68 0 1.36 0 0 Z " fill="#638868" transform="translate(436,135)"/>
<path d="M0 0 C0.33 0.66 0.66 1.32 1 2 C-0.62171239 2.38897161 -2.24754925 2.76078298 -3.875 3.125 C-4.77992188 3.33382813 -5.68484375 3.54265625 -6.6171875 3.7578125 C-7.40351563 3.83773438 -8.18984375 3.91765625 -9 4 C-9.66 3.34 -10.32 2.68 -11 2 C-7.17679443 0.57741188 -4.08718695 -0.24042276 0 0 Z " fill="#44734A" transform="translate(220,336)"/>
<path d="M0 0 C1.65 0.33 3.3 0.66 5 1 C1.99559979 3.00293347 0.29006055 3.49271626 -3.1875 4.125 C-4.08855469 4.29257812 -4.98960937 4.46015625 -5.91796875 4.6328125 C-6.60503906 4.75398438 -7.29210937 4.87515625 -8 5 C-7.67 3.68 -7.34 2.36 -7 1 C-4.69 1 -2.38 1 0 1 C0 0.67 0 0.34 0 0 Z " fill="#628E66" transform="translate(231,332)"/>
<path d="M0 0 C0.99 0.66 1.98 1.32 3 2 C1.40377344 3.03320481 -0.20229106 4.05122429 -1.8125 5.0625 C-3.15248047 5.91521484 -3.15248047 5.91521484 -4.51953125 6.78515625 C-7 8 -7 8 -10 7 C-5.5 3 -5.5 3 -1 3 C-0.67 2.01 -0.34 1.02 0 0 Z " fill="#6D8F6F" transform="translate(318,296)"/>
<path d="M0 0 C0.33 1.32 0.66 2.64 1 4 C0.071875 4.3403125 0.071875 4.3403125 -0.875 4.6875 C-3.61410209 6.37929835 -4.05024472 7.99244161 -5 11 C-6.32 10.67 -7.64 10.34 -9 10 C-6.03 6.7 -3.06 3.4 0 0 Z " fill="#668D6A" transform="translate(187,279)"/>
<path d="M0 0 C0.99 0 1.98 0 3 0 C2.75 2.875 2.75 2.875 2 6 C-0.0625 7.375 -0.0625 7.375 -2 8 C-1.125 2.25 -1.125 2.25 0 0 Z " fill="#226029" transform="translate(163,310)"/>
<path d="M0 0 C-2.42755736 2.42755736 -4.89189508 3.57545191 -8 5 C-8.66 5 -9.32 5 -10 5 C-10 4.01 -10 3.02 -10 2 C-6.42454167 -0.86036666 -4.36137826 -1.37071888 0 0 Z " fill="#527D54" transform="translate(265,204)"/>
<path d="M0 0 C3.3 0 6.6 0 10 0 C10.33 0.66 10.66 1.32 11 2 C7.7 2.33 4.4 2.66 1 3 C0.67 2.01 0.34 1.02 0 0 Z " fill="#5C8460" transform="translate(149,349)"/>
<path d="M0 0 C0.66 0.99 1.32 1.98 2 3 C1.125 6.1875 1.125 6.1875 0 9 C-0.66 9 -1.32 9 -2 9 C-1.67 9.99 -1.34 10.98 -1 12 C-1.99 12.66 -2.98 13.32 -4 14 C-3.52372025 12.04096255 -3.04388577 10.08278903 -2.5625 8.125 C-2.29566406 7.03445312 -2.02882813 5.94390625 -1.75390625 4.8203125 C-1 2 -1 2 0 0 Z " fill="#76957B" transform="translate(115,243)"/>
<path d="M0 0 C0.66 0.33 1.32 0.66 2 1 C0.02 5.455 0.02 5.455 -2 10 C-2.66 9.67 -3.32 9.34 -4 9 C-3.46930939 5.17902761 -2.50298434 2.93828597 0 0 Z " fill="#4C764F" transform="translate(428,153)"/>
<path d="M0 0 C-3.9050849 3.55007718 -6.97734643 4.81819916 -12 6 C-11.67 5.34 -11.34 4.68 -11 4 C-10.34 4 -9.68 4 -9 4 C-9 3.34 -9 2.68 -9 2 C-5.5647952 -0.29013653 -4.014669 -0.17842973 0 0 Z " fill="#67896B" transform="translate(189,146)"/>
<path d="M0 0 C0.66 0.33 1.32 0.66 2 1 C0.6302836 4.99500618 -1.25722422 7.80009492 -4 11 C-4.75 9.25 -4.75 9.25 -5 7 C-3.125 4.9375 -3.125 4.9375 -1 3 C-0.67 2.01 -0.34 1.02 0 0 Z " fill="#587C5B" transform="translate(101,349)"/>
<path d="M0 0 C1.32 0.33 2.64 0.66 4 1 C-0.455 3.97 -0.455 3.97 -5 7 C-5 4 -5 4 -4 2 C-2.68 2 -1.36 2 0 2 C0 1.34 0 0.68 0 0 Z " fill="#5A815D" transform="translate(203,240)"/>
<path d="M0 0 C0.99 0.33 1.98 0.66 3 1 C0.69 3.97 -1.62 6.94 -4 10 C-4.33 9.01 -4.66 8.02 -5 7 C-3.58511552 4.23760649 -2.19636905 2.19636905 0 0 Z " fill="#669071" transform="translate(379,236)"/>
<path d="M0 0 C1.33641852 0.32074044 2.66869885 0.65864073 4 1 C6.66225426 1.38177642 9.32821089 1.68829127 12 2 C12 2.66 12 3.32 12 4 C10.20759337 3.88610125 8.41605165 3.75852313 6.625 3.625 C5.12839844 3.52058594 5.12839844 3.52058594 3.6015625 3.4140625 C1 3 1 3 -1 1 C-0.67 0.67 -0.34 0.34 0 0 Z " fill="#27622C" transform="translate(138,348)"/>
<path d="M0 0 C0 3.90838866 -1.50567876 5.11594107 -4 8 C-5.32 7.67 -6.64 7.34 -8 7 C-6.625 5.5 -6.625 5.5 -5 4 C-4.34 4 -3.68 4 -3 4 C-3 3.34 -3 2.68 -3 2 C-2.01 1.34 -1.02 0.68 0 0 Z " fill="#6C8F6F" transform="translate(175,153)"/>
<path d="M0 0 C-2.97 2.64 -5.94 5.28 -9 8 C-9 4.80780296 -8.76394209 3.60391451 -7 1 C-2.6097561 -1.30487805 -2.6097561 -1.30487805 0 0 Z " fill="#316937" transform="translate(183,151)"/>
<path d="M0 0 C3.63 0.66 7.26 1.32 11 2 C11 2.99 11 3.98 11 5 C10.67 4.34 10.34 3.68 10 3 C7.36 3.33 4.72 3.66 2 4 C2 3.01 2 2.02 2 1 C1.34 0.67 0.68 0.34 0 0 Z " fill="#688C6C" transform="translate(423,131)"/>
<path d="M0 0 C3.63 0.66 7.26 1.32 11 2 C11 2.33 11 2.66 11 3 C3.57142857 4.28571429 3.57142857 4.28571429 0 3 C0 2.01 0 1.02 0 0 Z " fill="#5A7D5C" transform="translate(409,128)"/>
<path d="M0 0 C1 3 1 3 1 7 C1.66 7 2.32 7 3 7 C2.34 8.32 1.68 9.64 1 11 C-0.625 8.3125 -0.625 8.3125 -2 5 C-1.1875 2.125 -1.1875 2.125 0 0 Z " fill="#5B845E" transform="translate(64,362)"/>
<path d="M0 0 C0.33 1.32 0.66 2.64 1 4 C-0.1875 5.8125 -0.1875 5.8125 -2 7 C-3.32 6.67 -4.64 6.34 -6 6 C-4.02 4.02 -2.04 2.04 0 0 Z " fill="#55825A" transform="translate(79,346)"/>
<path d="M0 0 C0.33 0.99 0.66 1.98 1 3 C-1.85306797 5.32472205 -4.54074837 6.7508258 -8 8 C-3.375 2.25 -3.375 2.25 0 0 Z " fill="#6F9972" transform="translate(228,238)"/>
<path d="M0 0 C0.66 0.99 1.32 1.98 2 3 C-0.8125 5.0625 -0.8125 5.0625 -4 7 C-4.99 6.67 -5.98 6.34 -7 6 C-6.01 5.67 -5.02 5.34 -4 5 C-4 4.01 -4 3.02 -4 2 C-2.68 1.34 -1.36 0.68 0 0 Z " fill="#518455" transform="translate(225,224)"/>
<path d="M0 0 C0.99 0.33 1.98 0.66 3 1 C2.01 2.98 1.02 4.96 0 7 C-0.66 6.67 -1.32 6.34 -2 6 C-2 4.68 -2 3.36 -2 2 C-1.34 2 -0.68 2 0 2 C0 1.34 0 0.68 0 0 Z M-3 7 C-2.34 7.66 -1.68 8.32 -1 9 C-1.99 9.495 -1.99 9.495 -3 10 C-3 9.01 -3 8.02 -3 7 Z " fill="#457649" transform="translate(279,198)"/>
<path d="M0 0 C3.63 0.33 7.26 0.66 11 1 C10.34 1.66 9.68 2.32 9 3 C6.8359375 2.9765625 6.8359375 2.9765625 4.375 2.625 C3.55773437 2.51414062 2.74046875 2.40328125 1.8984375 2.2890625 C1.27195312 2.19367188 0.64546875 2.09828125 0 2 C0 1.34 0 0.68 0 0 Z " fill="#698A6C" transform="translate(378,122)"/>
<path d="M0 0 C-0.99 1.485 -0.99 1.485 -2 3 C-4.64 2.67 -7.28 2.34 -10 2 C-9.67 1.34 -9.34 0.68 -9 0 C-2.57142857 -1.28571429 -2.57142857 -1.28571429 0 0 Z " fill="#2A6231" transform="translate(165,347)"/>
<path d="M0 0 C0.66 0.66 1.32 1.32 2 2 C1.01 2.33 0.02 2.66 -1 3 C-1 3.66 -1 4.32 -1 5 C-2.32 5.33 -3.64 5.66 -5 6 C-5.33 5.01 -5.66 4.02 -6 3 C-4.02 2.01 -2.04 1.02 0 0 Z " fill="#3E6D45" transform="translate(310,300)"/>
<path d="M0 0 C0.99 0 1.98 0 3 0 C3 0.99 3 1.98 3 3 C2.34 3 1.68 3 1 3 C1 4.65 1 6.3 1 8 C0.01 7.67 -0.98 7.34 -2 7 C-1.34 4.69 -0.68 2.38 0 0 Z " fill="#45774B" transform="translate(118,235)"/>
<path d="M0 0 C0.66 0.33 1.32 0.66 2 1 C0.90931332 4.77545388 0.0916909 7.47043472 -3 10 C-2.49287967 6.28111761 -1.88391785 3.26545761 0 0 Z " fill="#6D9570" transform="translate(403,199)"/>
<path d="M0 0 C0.99 0 1.98 0 3 0 C1.90931332 3.77545388 1.0916909 6.47043472 -2 9 C-1.125 1.125 -1.125 1.125 0 0 Z " fill="#548159" transform="translate(418,171)"/>
<path d="M0 0 C0.6875 1.8125 0.6875 1.8125 1 4 C-0.25 5.75 -0.25 5.75 -2 7 C-2.99 7 -3.98 7 -5 7 C-5 6.34 -5 5.68 -5 5 C-4.34 5 -3.68 5 -3 5 C-2.5359375 4.0409375 -2.5359375 4.0409375 -2.0625 3.0625 C-1 1 -1 1 0 0 Z " fill="#6D8D6F" transform="translate(162,165)"/>
<path d="M0 0 C1.45823212 -0.0270043 2.91660675 -0.04639787 4.375 -0.0625 C5.18710937 -0.07410156 5.99921875 -0.08570313 6.8359375 -0.09765625 C9 0 9 0 11 1 C11 1.66 11 2.32 11 3 C9.68 3.33 8.36 3.66 7 4 C7 3.34 7 2.68 7 2 C4.69 1.67 2.38 1.34 0 1 C0 0.67 0 0.34 0 0 Z " fill="#2D6133" transform="translate(414,131)"/>
<path d="M0 0 C2.875 -0.125 2.875 -0.125 6 0 C6.66 0.66 7.32 1.32 8 2 C3.545 2.495 3.545 2.495 -1 3 C-0.67 2.01 -0.34 1.02 0 0 Z " fill="#678E6B" transform="translate(164,347)"/>
<path d="M0 0 C0 0.66 0 1.32 0 2 C-1.1446875 2.2165625 -1.1446875 2.2165625 -2.3125 2.4375 C-5.08172908 2.9632594 -5.08172908 2.9632594 -8 4 C-8.66 3.34 -9.32 2.68 -10 2 C-3.375 0 -3.375 0 0 0 Z " fill="#2A622F" transform="translate(254,325)"/>
<path d="M0 0 C0.99 0.66 1.98 1.32 3 2 C0.03 4.475 0.03 4.475 -3 7 C-3.33 6.01 -3.66 5.02 -4 4 C-3.34 4 -2.68 4 -2 4 C-1.34 2.68 -0.68 1.36 0 0 Z " fill="#517E58" transform="translate(349,270)"/>
<path d="M0 0 C0.99 0 1.98 0 3 0 C1.52307692 4.67692308 1.52307692 4.67692308 -1.125 6.3125 C-2.053125 6.6528125 -2.053125 6.6528125 -3 7 C-3 6.34 -3 5.68 -3 5 C-2.34 5 -1.68 5 -1 5 C-0.67 3.35 -0.34 1.7 0 0 Z " fill="#4D7B51" transform="translate(384,228)"/>
<path d="M0 0 C1 3 1 3 -0.4375 6.1875 C-1.2109375 7.5796875 -1.2109375 7.5796875 -2 9 C-3.125 7.25 -3.125 7.25 -4 5 C-3.07451225 2.30066074 -2.57626463 1.28813232 0 0 Z " fill="#476F49" transform="translate(411,186)"/>
<path d="M0 0 C2.475 0.99 2.475 0.99 5 2 C5 3.32 5 4.64 5 6 C3.2925002 4.71937515 1.62626404 3.38232443 0 2 C0 1.34 0 0.68 0 0 Z " fill="#507854" transform="translate(66,373)"/>
<path d="M0 0 C-5.2734375 3.22265625 -5.2734375 3.22265625 -7 4 C-7.66 3.67 -8.32 3.34 -9 3 C-5.83583464 -0.30799106 -4.50236011 -1.35070803 0 0 Z " fill="#6F8972" transform="translate(305,307)"/>
<path d="M0 0 C0.66 0.33 1.32 0.66 2 1 C2 2.32 2 3.64 2 5 C0.35 5.33 -1.3 5.66 -3 6 C-2 4 -1 2 0 0 Z " fill="#628A63" transform="translate(172,296)"/>
<path d="M0 0 C2.0625 0.4375 2.0625 0.4375 4 1 C2.625 2.5 2.625 2.5 1 4 C0.34 4 -0.32 4 -1 4 C-1.33 4.66 -1.66 5.32 -2 6 C-1.125 1.125 -1.125 1.125 0 0 Z " fill="#5C805E" transform="translate(342,277)"/>
<path d="M0 0 C0.66 0 1.32 0 2 0 C1.8125 1.8125 1.8125 1.8125 1 4 C-1.5625 5.75 -1.5625 5.75 -4 7 C-3.34 5.35 -2.68 3.7 -2 2 C-1.34 2 -0.68 2 0 2 C0 1.34 0 0.68 0 0 Z " fill="#2F6631" transform="translate(205,261)"/>
<path d="M0 0 C0.99 0.33 1.98 0.66 3 1 C2.01 2.485 2.01 2.485 1 4 C0.34 4 -0.32 4 -1 4 C-1.33 4.99 -1.66 5.98 -2 7 C-2.66 6.01 -3.32 5.02 -4 4 C-2.68 2.68 -1.36 1.36 0 0 Z " fill="#5A8461" transform="translate(363,256)"/>
<path d="M0 0 C0.33 1.32 0.66 2.64 1 4 C-0.96466413 5.06775224 -2.96855359 6.06553465 -5 7 C-5.66 6.67 -6.32 6.34 -7 6 C-4.69 4.02 -2.38 2.04 0 0 Z " fill="#7D9F7F" transform="translate(244,224)"/>
<path d="M0 0 C0 0.66 0 1.32 0 2 C-4.625 4.125 -4.625 4.125 -8 3 C-4.93882432 0.37613513 -4.26826873 0 0 0 Z " fill="#628868" transform="translate(266,210)"/>
</svg>
